<svg xmlns="http://www.w3.org/2000/svg" xmlns:xlink="http://www.w3.org/1999/xlink" version="1.1" id="Layer_1" x="0px" y="0px" width="100px" height="100px" viewBox="0 0 100 100" enable-background="new 0 0 100 100" xml:space="preserve">
<g>
	<path d="M49.999,5.454c-24.813,0-45,20.187-45,45c0,24.812,20.187,45,45,45S95,75.266,95,50.454   C95,25.641,74.812,5.454,49.999,5.454z M49.999,87.333c-20.336,0-36.88-16.544-36.88-36.88s16.544-36.88,36.88-36.88   c20.337,0,36.881,16.544,36.881,36.88S70.336,87.333,49.999,87.333z"/>
	<path d="M59.947,37.748c-0.793,0.792-0.793,2.078,0,2.871c5.422,5.424,5.422,14.247,0,19.669c-5.424,5.424-14.246,5.424-19.67,0   c-2.627-2.627-4.074-6.118-4.074-9.834c0-3.715,1.447-7.207,4.074-9.835c0.793-0.793,0.793-2.079,0-2.871   c-0.793-0.793-2.078-0.793-2.871,0c-3.394,3.394-5.263,7.906-5.263,12.706c0,4.801,1.869,9.313,5.263,12.705   c3.503,3.503,8.104,5.256,12.706,5.256s9.203-1.753,12.706-5.256c7.004-7.004,7.004-18.404,0-25.411   C62.025,36.955,60.74,36.955,59.947,37.748z"/>
	<path d="M50.112,52.701c1.122,0,2.03-0.909,2.03-2.03v-19.04c0-1.121-0.908-2.03-2.03-2.03s-2.03,0.909-2.03,2.03v19.04   C48.082,51.792,48.99,52.701,50.112,52.701z"/>
</g>
</svg>